<svg width="25" height="25" viewBox="0 0 25 25" fill="none" xmlns="http://www.w3.org/2000/svg">
<g clip-path="url(#clip0_694_125)">
<path d="M23.1345 15.1603L12.3697 22.9837L1.60481 15.1603C1.4605 15.0541 1.35345 14.9051 1.29898 14.7344C1.24452 14.5638 1.24543 14.3802 1.30158 14.2101L2.53473 10.3894L5.00104 2.7984C5.02496 2.73654 5.06304 2.68116 5.11223 2.63667C5.19232 2.56351 5.29688 2.52295 5.40536 2.52295C5.51383 2.52295 5.61839 2.56351 5.69848 2.63667C5.75042 2.68687 5.78869 2.74949 5.80967 2.81861L8.27598 10.3894H16.4633L18.9296 2.7984C18.9536 2.73654 18.9916 2.68116 19.0408 2.63667C19.1209 2.56351 19.2255 2.52295 19.3339 2.52295C19.4424 2.52295 19.547 2.56351 19.6271 2.63667C19.679 2.68687 19.7173 2.74949 19.7383 2.81861L22.2046 10.4096L23.4883 14.2101C23.5393 14.3855 23.5325 14.5726 23.4688 14.7438C23.405 14.915 23.2878 15.061 23.1345 15.1603V15.1603Z" stroke="white" stroke-width="1.01078" stroke-linecap="round" stroke-linejoin="round"/>
</g>
<defs>
<clipPath id="clip0_694_125">
<rect width="24.2588" height="24.2588" fill="white" transform="translate(0.241211 0.614746)"/>
</clipPath>
</defs>
</svg>
