<svg width="24" height="23" viewBox="0 0 24 23" fill="none" xmlns="http://www.w3.org/2000/svg">
<path fill-rule="evenodd" clip-rule="evenodd" d="M1.33598 3.4049C1.33598 2.45382 2.10306 1.68656 3.04468 1.68656C3.98631 1.68656 4.75339 2.45382 4.75339 3.4049C4.75339 4.35597 3.98631 5.12323 3.04468 5.12323C2.10306 5.12323 1.33598 4.35597 1.33598 3.4049ZM3.04468 0.675781C1.54069 0.675781 0.325195 1.89972 0.325195 3.4049C0.325195 4.91007 1.54069 6.13401 3.04468 6.13401C4.54868 6.13401 5.76417 4.91007 5.76417 3.4049C5.76417 1.89972 4.54868 0.675781 3.04468 0.675781ZM16.3288 8.35799C14.7019 8.35799 13.1412 9.00706 11.9902 10.1631C10.839 11.3193 10.1919 12.8878 10.1919 14.5238V21.8014H13.6093V14.5238C13.6093 13.8007 13.8953 13.1067 14.4051 12.5948C14.9149 12.0827 15.6069 11.7947 16.3288 11.7947C17.0508 11.7947 17.7427 12.0827 18.2526 12.5948C18.7623 13.1067 19.0483 13.8007 19.0483 14.5238V21.8014H22.4657V14.5238C22.4657 12.8878 21.8186 11.3193 20.6675 10.1631C19.5164 9.00706 17.9557 8.35799 16.3288 8.35799ZM11.2739 9.44995C12.6142 8.10384 14.4324 7.3472 16.3288 7.3472C18.2252 7.3472 20.0435 8.10384 21.3838 9.44995C22.724 10.796 23.4765 12.6211 23.4765 14.5238V22.3068C23.4765 22.5859 23.2502 22.8122 22.9711 22.8122H18.5429C18.2638 22.8122 18.0375 22.5859 18.0375 22.3068V14.5238C18.0375 14.0673 17.857 13.63 17.5363 13.3079C17.2157 12.9859 16.7813 12.8054 16.3288 12.8054C15.8764 12.8054 15.442 12.9859 15.1214 13.3079C14.8007 13.63 14.6201 14.0673 14.6201 14.5238V22.3068C14.6201 22.5859 14.3939 22.8122 14.1147 22.8122H9.68654C9.40742 22.8122 9.18115 22.5859 9.18115 22.3068V14.5238C9.18115 12.6211 9.93368 10.796 11.2739 9.44995ZM0.325195 8.9645C0.325195 8.68538 0.551467 8.45911 0.830587 8.45911H5.25878C5.5379 8.45911 5.76417 8.68538 5.76417 8.9645V22.3068C5.76417 22.586 5.5379 22.8122 5.25878 22.8122H0.830587C0.551467 22.8122 0.325195 22.586 0.325195 22.3068V8.9645ZM1.33598 9.46989V21.8014H4.75339V9.46989H1.33598Z" fill="white"/>
</svg>
