<svg width="26" height="25" viewBox="0 0 26 25" fill="none" xmlns="http://www.w3.org/2000/svg">
<path d="M24.0077 3.64688C23.0398 4.32964 21.9681 4.85185 20.8339 5.19338C20.2251 4.49342 19.4161 3.99731 18.5162 3.77215C17.6163 3.54698 16.6689 3.60362 15.8023 3.9344C14.9356 4.26519 14.1915 4.85416 13.6704 5.62167C13.1494 6.38917 12.8767 7.29817 12.8891 8.22573V9.23651C11.1128 9.28257 9.35267 8.88861 7.76547 8.08972C6.17827 7.29084 4.81329 6.11181 3.79207 4.65767C3.79207 4.65767 -0.251058 13.7547 8.84599 17.7978C6.76431 19.2109 4.28448 19.9194 1.77051 19.8194C10.8676 24.8733 21.9862 19.8194 21.9862 8.19541C21.9852 7.91386 21.9582 7.633 21.9053 7.35646C22.9369 6.3391 23.6649 5.05461 24.0077 3.64688V3.64688Z" stroke="white" stroke-width="1.01078" stroke-linecap="round" stroke-linejoin="round"/>
</svg>
